<svg xmlns="http://www.w3.org/2000/svg" viewBox="0 0 32 32">
  <rect width="32" height="32" rx="8" fill="#3e2a1f"/>
  <g fill="none" stroke="#faf3e7" stroke-width="1.6" stroke-linecap="round" stroke-linejoin="round">
    <path d="M10 7c0 1.2-1 1.8-1 3.5s1 2.3 1 3.5" opacity="0.7"/>
    <path d="M16 7c0 1.2-1 1.8-1 3.5s1 2.3 1 3.5" opacity="0.7"/>
    <path d="M22 7c0 1.2-1 1.8-1 3.5s1 2.3 1 3.5" opacity="0.7"/>
    <path d="M6 15h16v4a6 6 0 0 1-6 6h-4a6 6 0 0 1-6-6v-4z"/>
    <path d="M22 16h1.5a2.5 2.5 0 0 1 0 5H22"/>
  </g>
</svg>
